<svg width="48" height="48" viewBox="0 0 48 48" fill="none" xmlns="http://www.w3.org/2000/svg">
<path d="M5.24999 29.9999C5.10168 29.9999 4.95671 29.9559 4.8334 29.8735C4.71009 29.7911 4.61399 29.674 4.55723 29.5369C4.50048 29.3999 4.48563 29.2491 4.51456 29.1037C4.54348 28.9582 4.61489 28.8246 4.71974 28.7197L18.9697 14.4697C19.1104 14.3291 19.3011 14.2501 19.5 14.2501C19.6989 14.2501 19.8896 14.3291 20.0302 14.4697L26.25 20.6894L42.2197 4.71969C42.2889 4.64806 42.3717 4.59092 42.4632 4.55161C42.5547 4.51231 42.6531 4.49162 42.7527 4.49075C42.8523 4.48989 42.951 4.50886 43.0432 4.54657C43.1354 4.58428 43.2191 4.63997 43.2895 4.71039C43.36 4.78081 43.4156 4.86455 43.4534 4.95672C43.4911 5.0489 43.51 5.14766 43.5092 5.24724C43.5083 5.34682 43.4876 5.44524 43.4483 5.53674C43.409 5.62825 43.3519 5.711 43.2802 5.78019L26.7802 22.2802C26.6396 22.4208 26.4489 22.4998 26.25 22.4998C26.0511 22.4998 25.8604 22.4208 25.7197 22.2802L19.5 16.0604L5.78024 29.7802C5.63962 29.9209 5.44889 29.9999 5.24999 29.9999Z" fill="#2D9CCC"/>
<path d="M42.75 9.75C42.5511 9.75 42.3603 9.67098 42.2197 9.53033C42.079 9.38968 42 9.19891 42 9V6H39C38.8011 6 38.6103 5.92098 38.4697 5.78033C38.329 5.63968 38.25 5.44891 38.25 5.25C38.25 5.05109 38.329 4.86032 38.4697 4.71967C38.6103 4.57902 38.8011 4.5 39 4.5H42.75C42.9489 4.5 43.1397 4.57902 43.2803 4.71967C43.421 4.86032 43.5 5.05109 43.5 5.25V9C43.5 9.19891 43.421 9.38968 43.2803 9.53033C43.1397 9.67098 42.9489 9.75 42.75 9.75Z" fill="#2D9CCC"/>
<path d="M47.25 43.5H0.75C0.551088 43.5 0.360322 43.421 0.21967 43.2803C0.0790176 43.1397 0 42.9489 0 42.75V5.25C0 5.05109 0.0790176 4.86032 0.21967 4.71967C0.360322 4.57902 0.551088 4.5 0.75 4.5C0.948912 4.5 1.13968 4.57902 1.28033 4.71967C1.42098 4.86032 1.5 5.05109 1.5 5.25V42H47.25C47.4489 42 47.6397 42.079 47.7803 42.2197C47.921 42.3603 48 42.5511 48 42.75C48 42.9489 47.921 43.1397 47.7803 43.2803C47.6397 43.421 47.4489 43.5 47.25 43.5Z" fill="#2D9CCC"/>
<path d="M9 43.5H5.25C5.05109 43.5 4.86032 43.421 4.71967 43.2803C4.57902 43.1397 4.5 42.9489 4.5 42.75V33C4.5 32.8011 4.57902 32.6103 4.71967 32.4697C4.86032 32.329 5.05109 32.25 5.25 32.25H9C9.19891 32.25 9.38968 32.329 9.53033 32.4697C9.67098 32.6103 9.75 32.8011 9.75 33C9.75 33.1989 9.67098 33.3897 9.53033 33.5303C9.38968 33.671 9.19891 33.75 9 33.75H6V42H9C9.19891 42 9.38968 42.079 9.53033 42.2197C9.67098 42.3603 9.75 42.5511 9.75 42.75C9.75 42.9489 9.67098 43.1397 9.53033 43.2803C9.38968 43.421 9.19891 43.5 9 43.5Z" fill="#2D9CCC"/>
<path d="M15.75 43.5H12C11.8011 43.5 11.6103 43.421 11.4697 43.2803C11.329 43.1397 11.25 42.9489 11.25 42.75V27C11.25 26.8011 11.329 26.6103 11.4697 26.4697C11.6103 26.329 11.8011 26.25 12 26.25H15.75C15.9489 26.25 16.1397 26.329 16.2803 26.4697C16.421 26.6103 16.5 26.8011 16.5 27C16.5 27.1989 16.421 27.3897 16.2803 27.5303C16.1397 27.671 15.9489 27.75 15.75 27.75H12.75V42H15.75C15.9489 42 16.1397 42.079 16.2803 42.2197C16.421 42.3603 16.5 42.5511 16.5 42.75C16.5 42.9489 16.421 43.1397 16.2803 43.2803C16.1397 43.421 15.9489 43.5 15.75 43.5Z" fill="#2D9CCC"/>
<path d="M22.5 43.5H18.75C18.5511 43.5 18.3603 43.421 18.2197 43.2803C18.079 43.1397 18 42.9489 18 42.75V21.75C18 21.5511 18.079 21.3603 18.2197 21.2197C18.3603 21.079 18.5511 21 18.75 21H22.5C22.6989 21 22.8897 21.079 23.0303 21.2197C23.171 21.3603 23.25 21.5511 23.25 21.75V24C23.25 24.1989 23.171 24.3897 23.0303 24.5303C22.8897 24.671 22.6989 24.75 22.5 24.75C22.3011 24.75 22.1103 24.671 21.9697 24.5303C21.829 24.3897 21.75 24.1989 21.75 24V22.5H19.5V42H22.5C22.6989 42 22.8897 42.079 23.0303 42.2197C23.171 42.3603 23.25 42.5511 23.25 42.75C23.25 42.9489 23.171 43.1397 23.0303 43.2803C22.8897 43.421 22.6989 43.5 22.5 43.5Z" fill="#2D9CCC"/>
<path d="M29.25 43.5H25.5C25.3011 43.5 25.1103 43.421 24.9697 43.2803C24.829 43.1397 24.75 42.9489 24.75 42.75V25.5C24.75 25.3011 24.829 25.1103 24.9697 24.9697C25.1103 24.829 25.3011 24.75 25.5 24.75H29.25C29.4489 24.75 29.6397 24.829 29.7803 24.9697C29.921 25.1103 30 25.3011 30 25.5C30 25.6989 29.921 25.8897 29.7803 26.0303C29.6397 26.171 29.4489 26.25 29.25 26.25H26.25V42H29.25C29.4489 42 29.6397 42.079 29.7803 42.2197C29.921 42.3603 30 42.5511 30 42.75C30 42.9489 29.921 43.1397 29.7803 43.2803C29.6397 43.421 29.4489 43.5 29.25 43.5Z" fill="#2D9CCC"/>
<path d="M36 43.5H32.25C32.0511 43.5 31.8603 43.421 31.7197 43.2803C31.579 43.1397 31.5 42.9489 31.5 42.75V19.5C31.5 19.3011 31.579 19.1103 31.7197 18.9697C31.8603 18.829 32.0511 18.75 32.25 18.75H36C36.1989 18.75 36.3897 18.829 36.5303 18.9697C36.671 19.1103 36.75 19.3011 36.75 19.5C36.75 19.6989 36.671 19.8897 36.5303 20.0303C36.3897 20.171 36.1989 20.25 36 20.25H33V42H36C36.1989 42 36.3897 42.079 36.5303 42.2197C36.671 42.3603 36.75 42.5511 36.75 42.75C36.75 42.9489 36.671 43.1397 36.5303 43.2803C36.3897 43.421 36.1989 43.5 36 43.5Z" fill="#2D9CCC"/>
<path d="M42.75 43.5H39C38.8011 43.5 38.6103 43.421 38.4697 43.2803C38.329 43.1397 38.25 42.9489 38.25 42.75V13.5C38.25 13.3011 38.329 13.1103 38.4697 12.9697C38.6103 12.829 38.8011 12.75 39 12.75H42.75C42.9489 12.75 43.1397 12.829 43.2803 12.9697C43.421 13.1103 43.5 13.3011 43.5 13.5V42.75C43.5 42.9489 43.421 43.1397 43.2803 43.2803C43.1397 43.421 42.9489 43.5 42.75 43.5ZM39.75 42H42V14.25H39.75V42Z" fill="#2D9CCC"/>
</svg>
