<svg width="48" height="48" viewBox="0 0 48 48" fill="none" xmlns="http://www.w3.org/2000/svg">
<g clip-path="url(#clip0_53_355)">
<path d="M40.5 30.7501C40.4033 30.7504 40.3074 30.7315 40.218 30.6946C40.1245 30.6567 40.0396 30.6005 39.9683 30.5291C39.8971 30.4577 39.8409 30.3726 39.8033 30.2791L33.8033 15.2791C33.7311 15.0988 33.7316 14.8975 33.8048 14.7176C33.8779 14.5378 34.018 14.3933 34.1955 14.3146L40.9455 11.3146C41.0377 11.2735 41.1372 11.2515 41.2381 11.2499C41.339 11.2482 41.4391 11.2669 41.5326 11.3048C41.6261 11.3428 41.711 11.3992 41.7821 11.4707C41.8533 11.5422 41.9093 11.6274 41.9468 11.7211L47.9468 26.7211C48.019 26.9013 48.0185 27.1026 47.9453 27.2825C47.8721 27.4623 47.7321 27.6068 47.5545 27.6856L40.8045 30.6856C40.7087 30.7281 40.6049 30.7501 40.5 30.7501ZM35.4645 15.3923L40.9073 28.9988L46.2855 26.6078L40.8428 13.0013L35.4645 15.3923Z" fill="#2D9CCC"/>
<path d="M20.7157 23.3536C19.9561 23.352 19.2209 23.0847 18.6376 22.5981C18.0543 22.1115 17.6595 21.4362 17.5217 20.6891C17.3839 19.9421 17.5117 19.1703 17.883 18.5076C18.2543 17.8449 18.8457 17.3329 19.5547 17.0603L26.7307 14.3003C26.8684 14.2473 27.0187 14.2361 27.1627 14.2681L33.8325 15.7501H34.5C34.6989 15.7501 34.8897 15.8291 35.0303 15.9697C35.171 16.1104 35.25 16.3012 35.25 16.5001C35.25 16.699 35.171 16.8897 35.0303 17.0304C34.8897 17.1711 34.6989 17.2501 34.5 17.2501H33.75C33.6952 17.2501 33.6407 17.2441 33.5872 17.2321L27.0622 15.7816L20.097 18.4598C19.6677 18.6304 19.3231 18.9633 19.1378 19.3864C18.9526 19.8095 18.9416 20.2886 19.1074 20.7198C19.2732 21.1509 19.6023 21.4992 20.0234 21.6891C20.4444 21.8791 20.9233 21.8953 21.3562 21.7343L28.9845 18.8003C29.077 18.762 29.1762 18.7427 29.2762 18.7433C29.3763 18.744 29.4752 18.7647 29.5672 18.8041C29.6592 18.8436 29.7423 18.9011 29.8117 18.9732C29.8811 19.0453 29.9353 19.1306 29.9713 19.224C30.0072 19.3174 30.0241 19.417 30.0209 19.517C30.0178 19.6171 29.9946 19.7155 29.9528 19.8064C29.9111 19.8973 29.8515 19.979 29.7777 20.0466C29.7039 20.1141 29.6173 20.1662 29.523 20.1998L21.891 23.1338C21.5161 23.2789 21.1177 23.3534 20.7157 23.3536Z" fill="#2D9CCC"/>
<path d="M34.5532 34.4716C34.2091 34.4719 33.8683 34.4043 33.5503 34.2728C33.2323 34.1413 32.9434 33.9483 32.7 33.7051C32.5593 33.5644 32.4802 33.3737 32.4801 33.1747C32.48 32.9757 32.559 32.7849 32.6996 32.6442C32.8403 32.5035 33.031 32.4244 33.23 32.4243C33.4289 32.4242 33.6198 32.5032 33.7605 32.6438C33.9718 32.8545 34.2582 32.9725 34.5566 32.972C34.855 32.9715 35.141 32.8525 35.3516 32.6412C35.5623 32.4298 35.6803 32.1435 35.6798 31.8451C35.6794 31.5467 35.5603 31.2607 35.349 31.0501L25.824 21.5251C25.7524 21.4559 25.6952 21.3731 25.6559 21.2816C25.6166 21.1901 25.5959 21.0917 25.5951 20.9921C25.5942 20.8925 25.6132 20.7938 25.6509 20.7016C25.6886 20.6094 25.7443 20.5257 25.8147 20.4553C25.8851 20.3848 25.9689 20.3292 26.061 20.2914C26.1532 20.2537 26.252 20.2348 26.3515 20.2356C26.4511 20.2365 26.5495 20.2572 26.6411 20.2965C26.7326 20.3358 26.8153 20.3929 26.8845 20.4646L36.4095 29.9896C36.7759 30.3568 37.0252 30.8243 37.1261 31.3332C37.227 31.842 37.1748 32.3693 36.9762 32.8486C36.7776 33.3278 36.4414 33.7374 36.0102 34.0257C35.579 34.3141 35.072 34.4682 34.5532 34.4686V34.4716Z" fill="#2D9CCC"/>
<path d="M32.25 37.4723C31.9053 37.4729 31.5638 37.4054 31.2453 37.2736C30.9267 37.1418 30.6373 36.9483 30.3938 36.7043L27.3938 33.7043C27.2571 33.5629 27.1815 33.3734 27.1833 33.1768C27.185 32.9801 27.2638 32.792 27.4029 32.653C27.542 32.5139 27.7301 32.435 27.9267 32.4333C28.1234 32.4316 28.3128 32.5072 28.4543 32.6438L31.4543 35.6438C31.6656 35.8549 31.9521 35.9733 32.2508 35.9731C32.5495 35.9729 32.8358 35.8541 33.0469 35.6427C33.2579 35.4314 33.3764 35.1448 33.3762 34.8462C33.376 34.5475 33.2571 34.2611 33.0458 34.0501L30.0458 31.0501C29.9091 30.9086 29.8335 30.7192 29.8353 30.5225C29.837 30.3259 29.9158 30.1378 30.0549 29.9987C30.194 29.8597 30.3821 29.7808 30.5787 29.7791C30.7754 29.7774 30.9648 29.853 31.1063 29.9896L34.1063 32.9896C34.4739 33.3566 34.7244 33.8245 34.826 34.334C34.9276 34.8435 34.8758 35.3716 34.677 35.8516C34.4782 36.3316 34.1415 36.7418 33.7095 37.0303C33.2775 37.3188 32.7695 37.4727 32.25 37.4723Z" fill="#2D9CCC"/>
<path d="M28.848 39.3749C28.5031 39.3759 28.1615 39.3084 27.8429 39.1765C27.5243 39.0445 27.235 38.8507 26.9918 38.6061L25.7168 37.3311C25.5801 37.1897 25.5045 37.0002 25.5063 36.8036C25.508 36.6069 25.5868 36.4188 25.7259 36.2798C25.865 36.1407 26.0531 36.0618 26.2497 36.0601C26.4464 36.0584 26.6358 36.134 26.7773 36.2706L28.0523 37.5456C28.2666 37.75 28.5515 37.864 28.8476 37.864C29.1438 37.864 29.4286 37.75 29.643 37.5456C29.7475 37.4412 29.8305 37.3171 29.8871 37.1806C29.9436 37.044 29.9728 36.8977 29.9728 36.7499C29.9728 36.6021 29.9436 36.4557 29.8871 36.3192C29.8305 36.1827 29.7475 36.0586 29.643 35.9541L27.393 33.7041C27.2564 33.5627 27.1808 33.3732 27.1825 33.1766C27.1842 32.9799 27.2631 32.7918 27.4021 32.6528C27.5412 32.5137 27.7293 32.4348 27.926 32.4331C28.1226 32.4314 28.3121 32.507 28.4535 32.6436L30.7035 34.8936C31.0706 35.2607 31.3206 35.7284 31.422 36.2375C31.5233 36.7467 31.4714 37.2745 31.2728 37.7541C31.0742 38.2338 30.7378 38.6438 30.3062 38.9322C29.8746 39.2207 29.3671 39.3748 28.848 39.3749Z" fill="#2D9CCC"/>
<path d="M25.4468 41.2755C25.102 41.2762 24.7605 41.2086 24.4419 41.0768C24.1234 40.945 23.834 40.7515 23.5905 40.5075L22.7197 39.6367C22.6481 39.5676 22.591 39.4848 22.5517 39.3933C22.5124 39.3018 22.4917 39.2034 22.4908 39.1038C22.4899 39.0042 22.5089 38.9055 22.5466 38.8133C22.5843 38.7211 22.64 38.6374 22.7105 38.5669C22.7809 38.4965 22.8646 38.4408 22.9568 38.4031C23.049 38.3654 23.1477 38.3464 23.2473 38.3473C23.3469 38.3482 23.4453 38.3689 23.5368 38.4082C23.6283 38.4475 23.7111 38.5046 23.7803 38.5762L24.651 39.45C24.7548 39.5574 24.8789 39.6431 25.0162 39.7021C25.1534 39.7611 25.301 39.7921 25.4504 39.7934C25.5998 39.7947 25.7479 39.7662 25.8862 39.7097C26.0245 39.6531 26.1501 39.5696 26.2557 39.4639C26.3613 39.3583 26.4449 39.2327 26.5014 39.0944C26.558 38.9562 26.5865 38.808 26.5852 38.6587C26.5839 38.5093 26.5528 38.3617 26.4939 38.2244C26.4349 38.0872 26.3492 37.963 26.2417 37.8592L25.7168 37.3342C25.6471 37.2646 25.5918 37.1819 25.5541 37.0909C25.5163 36.9999 25.4969 36.9024 25.4968 36.8039C25.4968 36.7054 25.5162 36.6078 25.5538 36.5168C25.5915 36.4258 25.6467 36.3431 25.7164 36.2734C25.786 36.2037 25.8687 36.1484 25.9597 36.1107C26.0507 36.0729 26.1482 36.0535 26.2467 36.0535C26.3452 36.0534 26.4428 36.0728 26.5338 36.1105C26.6249 36.1481 26.7076 36.2034 26.7772 36.273L27.3022 36.798C27.6691 37.1651 27.919 37.6328 28.0201 38.1419C28.1213 38.651 28.0692 39.1787 27.8706 39.6582C27.6719 40.1377 27.3355 40.5476 26.904 40.836C26.4724 41.1244 25.9651 41.2784 25.446 41.2785L25.4468 41.2755Z" fill="#2D9CCC"/>
<path d="M36 30.7499C35.8294 30.752 35.6633 30.6959 35.5289 30.5909C35.3945 30.4858 35.2999 30.3381 35.2608 30.1721C35.2217 30.0061 35.2403 29.8317 35.3136 29.6777C35.3869 29.5237 35.5105 29.3992 35.664 29.3249L38.664 27.8249C38.7521 27.7809 38.8481 27.7547 38.9464 27.7477C39.0447 27.7408 39.1434 27.7533 39.2368 27.7845C39.3303 27.8157 39.4167 27.865 39.4911 27.9296C39.5655 27.9941 39.6265 28.0728 39.6705 28.1609C39.7145 28.2491 39.7407 28.345 39.7477 28.4433C39.7546 28.5416 39.7421 28.6403 39.7109 28.7338C39.6797 28.8272 39.6304 28.9136 39.5658 28.988C39.5012 29.0624 39.4226 29.1234 39.3345 29.1674L36.3345 30.6674C36.2309 30.7205 36.1164 30.7487 36 30.7499Z" fill="#2D9CCC"/>
<path d="M7.49997 30.7501C7.39508 30.7501 7.29134 30.7281 7.19547 30.6856L0.445472 27.6856C0.267943 27.6068 0.127864 27.4623 0.0547068 27.2825C-0.0184508 27.1026 -0.0189832 26.9013 0.0532216 26.7211L6.05322 11.7211C6.09071 11.6274 6.14672 11.5422 6.21788 11.4707C6.28904 11.3992 6.37391 11.3428 6.46739 11.3048C6.56087 11.2669 6.66104 11.2482 6.76192 11.2499C6.86279 11.2515 6.9623 11.2735 7.05447 11.3146L13.8045 14.3146C13.982 14.3933 14.1221 14.5378 14.1952 14.7176C14.2684 14.8975 14.2689 15.0988 14.1967 15.2791L8.19672 30.2791C8.15908 30.3726 8.10295 30.4577 8.03169 30.5291C7.96043 30.6005 7.87549 30.6567 7.78197 30.6946C7.69256 30.7315 7.59671 30.7504 7.49997 30.7501ZM1.71447 26.6078L7.09272 28.9988L12.5355 15.3923L7.15722 13.0013L1.71447 26.6078Z" fill="#2D9CCC"/>
<path d="M14.25 17.2501H13.5C13.3011 17.2501 13.1103 17.1711 12.9697 17.0304C12.829 16.8897 12.75 16.699 12.75 16.5001C12.75 16.3012 12.829 16.1104 12.9697 15.9697C13.1103 15.8291 13.3011 15.7501 13.5 15.7501H14.1683L20.838 14.2681C20.982 14.2361 21.1323 14.2473 21.27 14.3003L24.27 15.4538C24.4557 15.5252 24.6054 15.6675 24.6862 15.8493C24.767 16.0311 24.7723 16.2375 24.7009 16.4232C24.6295 16.6089 24.4872 16.7586 24.3054 16.8394C24.1236 16.9202 23.9172 16.9255 23.7315 16.8541L20.9423 15.7816L14.4135 17.2321C14.3598 17.2441 14.305 17.2502 14.25 17.2501Z" fill="#2D9CCC"/>
<path d="M11.25 30.0001C11.1021 30 10.9576 29.9561 10.8345 29.8741L8.58451 28.3741C8.50257 28.3194 8.43219 28.2492 8.37741 28.1673C8.32262 28.0854 8.28449 27.9936 8.2652 27.897C8.24591 27.8004 8.24583 27.701 8.26497 27.6043C8.28411 27.5077 8.3221 27.4158 8.37676 27.3338C8.43143 27.2519 8.50169 27.1815 8.58356 27.1267C8.66542 27.0719 8.75727 27.0338 8.85386 27.0145C8.95046 26.9952 9.04991 26.9952 9.14653 27.0143C9.24316 27.0334 9.33507 27.0714 9.41701 27.1261L11.667 28.6261C11.801 28.7154 11.9027 28.8455 11.957 28.9971C12.0113 29.1487 12.0154 29.3138 11.9686 29.4679C11.9218 29.622 11.8267 29.757 11.6973 29.8528C11.5679 29.9486 11.4111 30.0003 11.25 30.0001Z" fill="#2D9CCC"/>
<path d="M13.4468 32.9714C13.1021 32.9721 12.7608 32.9047 12.4422 32.7732C12.1237 32.6417 11.8343 32.4485 11.5905 32.2049C11.0984 31.7126 10.822 31.0451 10.822 30.349C10.822 29.653 11.0984 28.9854 11.5905 28.4932L14.2425 25.8412C14.7348 25.3488 15.4025 25.0723 16.0988 25.0723C16.795 25.0723 17.4627 25.3488 17.955 25.8412C18.4473 26.3335 18.7239 27.0012 18.7239 27.6974C18.7239 28.3936 18.4473 29.0613 17.955 29.5536L15.3 32.2041C15.0568 32.4477 14.7679 32.6409 14.4499 32.7726C14.1319 32.9042 13.791 32.9718 13.4468 32.9714ZM12.651 31.1437C12.7555 31.2482 12.8796 31.3311 13.0161 31.3877C13.1526 31.4443 13.299 31.4734 13.4468 31.4734C13.5946 31.4734 13.7409 31.4443 13.8775 31.3877C14.014 31.3311 14.138 31.2482 14.2425 31.1437L16.8938 28.4924C17.1048 28.2811 17.2233 27.9945 17.2231 27.6959C17.2228 27.3972 17.104 27.1108 16.8926 26.8998C16.6813 26.6887 16.3948 26.5703 16.0961 26.5705C15.7974 26.5707 15.5111 26.6896 15.3 26.9009L12.651 29.5499C12.5461 29.6544 12.4629 29.7786 12.4061 29.9154C12.3494 30.0521 12.3201 30.1987 12.3201 30.3468C12.3201 30.4948 12.3494 30.6414 12.4061 30.7782C12.4629 30.9149 12.5461 31.0391 12.651 31.1437Z" fill="#2D9CCC"/>
<path d="M15.75 35.9722C15.2309 35.9721 14.7236 35.8181 14.292 35.5297C13.8605 35.2413 13.5241 34.8314 13.3254 34.3519C13.1268 33.8724 13.0747 33.3447 13.1759 32.8356C13.277 32.3265 13.5268 31.8589 13.8937 31.4917L16.8937 28.4917C17.3937 28.0141 18.0585 27.7476 18.75 27.7476C19.4414 27.7476 20.1063 28.0141 20.6062 28.4917C21.0984 28.984 21.3748 29.6515 21.3748 30.3476C21.3748 31.0436 21.0984 31.7112 20.6062 32.2035L17.6062 35.2035C17.3627 35.4476 17.0734 35.6412 16.7548 35.7731C16.4363 35.905 16.0948 35.9727 15.75 35.9722ZM18.75 29.2222C18.6022 29.222 18.4559 29.251 18.3195 29.3076C18.183 29.3643 18.0591 29.4474 17.955 29.5522L14.955 32.5522C14.8505 32.6567 14.7677 32.7808 14.7112 32.9173C14.6547 33.0538 14.6256 33.2001 14.6256 33.3478C14.6257 33.6462 14.7443 33.9324 14.9554 34.1433C15.1664 34.3543 15.4526 34.4727 15.751 34.4727C15.8988 34.4726 16.0451 34.4435 16.1815 34.3869C16.318 34.3304 16.442 34.2475 16.5465 34.143L19.5465 31.143C19.7037 30.9855 19.8107 30.785 19.854 30.5668C19.8973 30.3486 19.8749 30.1224 19.7896 29.9169C19.7044 29.7114 19.5601 29.5358 19.3751 29.4122C19.19 29.2887 18.9725 29.2221 18.75 29.2222Z" fill="#2D9CCC"/>
<path d="M19.152 37.875C18.6328 37.875 18.1252 37.7211 17.6935 37.4326C17.2618 37.1442 16.9253 36.7342 16.7266 36.2545C16.5279 35.7749 16.4759 35.247 16.5772 34.7378C16.6785 34.2286 16.9286 33.7608 17.2957 33.3937L19.5457 31.1437C20.0459 30.6664 20.7107 30.4001 21.402 30.4001C22.0933 30.4001 22.7581 30.6664 23.2582 31.1437C23.502 31.3875 23.6954 31.6769 23.8273 31.9954C23.9593 32.3139 24.0272 32.6552 24.0272 33C24.0272 33.3447 23.9593 33.6861 23.8273 34.0046C23.6954 34.3231 23.502 34.6125 23.2582 34.8562L21.0082 37.1062C20.7651 37.3509 20.4759 37.5448 20.1572 37.6768C19.8386 37.8087 19.4969 37.8761 19.152 37.875ZM21.402 31.875C21.2542 31.8745 21.1077 31.9034 20.9711 31.9599C20.8346 32.0164 20.7105 32.0995 20.6062 32.2042L18.3562 34.4542C18.2517 34.5587 18.1688 34.6827 18.1122 34.8193C18.0556 34.9558 18.0265 35.1022 18.0265 35.25C18.0265 35.3978 18.0556 35.5441 18.1122 35.6807C18.1688 35.8172 18.2517 35.9412 18.3562 36.0457C18.5707 36.2499 18.8555 36.3638 19.1516 36.3638C19.4477 36.3638 19.7325 36.2499 19.947 36.0457L22.197 33.7957C22.3544 33.6384 22.4616 33.438 22.5051 33.2198C22.5485 33.0015 22.5263 32.7753 22.4412 32.5697C22.3561 32.3641 22.212 32.1884 22.027 32.0647C21.842 31.941 21.6245 31.875 21.402 31.875Z" fill="#2D9CCC"/>
<path d="M22.5533 39.7755C22.0346 39.7746 21.5278 39.6202 21.0969 39.3316C20.666 39.043 20.3302 38.6332 20.1319 38.154C19.9337 37.6747 19.8818 37.1475 19.9829 36.6388C20.084 36.1301 20.3335 35.6628 20.7 35.2957L22.2 33.7957C22.4428 33.548 22.7324 33.3508 23.0519 33.2156C23.3714 33.0804 23.7145 33.0099 24.0614 33.0081C24.4083 33.0063 24.7522 33.0733 25.073 33.2053C25.3939 33.3372 25.6854 33.5314 25.9308 33.7767C26.1761 34.022 26.3704 34.3135 26.5024 34.6343C26.6344 34.9552 26.7015 35.299 26.6998 35.6459C26.6981 35.9928 26.6276 36.336 26.4925 36.6555C26.3574 36.975 26.1602 37.2646 25.9125 37.5075L24.4125 39.0075C24.1686 39.2519 23.8788 39.4456 23.5597 39.5774C23.2406 39.7092 22.8985 39.7765 22.5533 39.7755ZM24.0533 34.5255C23.9055 34.5254 23.7592 34.5545 23.6226 34.611C23.4861 34.6675 23.362 34.7503 23.2575 34.8547L21.7575 36.3547C21.546 36.5658 21.4269 36.8522 21.4266 37.151C21.4262 37.4499 21.5446 37.7366 21.7556 37.9481C21.9667 38.1597 22.2531 38.2787 22.5519 38.2791C22.8507 38.2794 23.1375 38.161 23.349 37.95L24.849 36.45C25.0062 36.2926 25.1132 36.0922 25.1565 35.874C25.1998 35.6558 25.1774 35.4297 25.0923 35.2243C25.0071 35.0188 24.863 34.8432 24.678 34.7196C24.4931 34.596 24.2757 34.53 24.0533 34.53V34.5255Z" fill="#2D9CCC"/>
</g>
<defs>
<clipPath id="clip0_53_355">
<rect width="48" height="48" fill="white"/>
</clipPath>
</defs>
</svg>
