<svg width="48" height="48" viewBox="0 0 48 48" fill="none" xmlns="http://www.w3.org/2000/svg">
<path d="M28.5281 43.3036L28.2831 43.3018C28.0337 43.2992 27.8303 43.094 27.833 42.8446C27.8356 42.596 28.0355 42.3962 28.2831 42.3962H28.2876L28.5281 42.3979C29.08 42.3979 29.5903 42.3749 30.0467 42.3298C30.2961 42.3192 30.5181 42.4873 30.542 42.7367C30.5659 42.9852 30.3845 43.2072 30.1351 43.2319C29.6496 43.2797 29.1092 43.3036 28.5281 43.3036ZM26.4753 43.2169C26.4639 43.2169 26.4515 43.2169 26.44 43.216C26.2392 43.2001 26.034 43.1824 25.8235 43.163C25.575 43.1391 25.3919 42.9189 25.4149 42.6694C25.4388 42.4209 25.6519 42.244 25.9084 42.2608C26.1136 42.2803 26.3135 42.298 26.509 42.3121C26.7584 42.3316 26.945 42.5492 26.9264 42.7986C26.9078 43.0365 26.7097 43.2169 26.4753 43.2169ZM31.8633 42.8897C31.6723 42.8897 31.4945 42.7685 31.4326 42.5766C31.3557 42.3387 31.4857 42.0831 31.7236 42.0061C32.3153 41.8133 32.7601 41.5568 33.0812 41.2207C33.2554 41.0412 33.5411 41.0341 33.7215 41.2066C33.9019 41.3791 33.9081 41.6665 33.7357 41.8469C33.3085 42.2936 32.7416 42.6279 32.0031 42.8676C31.9571 42.8826 31.9093 42.8897 31.8633 42.8897ZM34.1593 40.3717C34.1354 40.3717 34.1116 40.3699 34.0868 40.3664C33.84 40.3266 33.672 40.094 33.7109 39.8472C33.7569 39.5624 33.7781 39.2378 33.7781 38.8275C33.7772 38.5949 33.771 38.3587 33.7649 38.1235C33.7587 37.874 33.9559 37.6662 34.2062 37.6591C34.4591 37.698 34.6652 37.8519 34.6705 38.1005C34.6767 38.341 34.6829 38.5842 34.6838 38.8257C34.6838 39.2874 34.659 39.6571 34.606 39.9905C34.5697 40.2134 34.3778 40.3717 34.1593 40.3717ZM34.2991 36.7588C34.2681 36.7588 34.2371 36.7561 34.2071 36.749C33.9621 36.6986 33.8038 36.4598 33.8551 36.2148C33.9134 35.9318 33.9966 35.6851 34.1116 35.4604C34.2893 35.1137 34.6015 34.8006 35.0667 34.4999C35.2755 34.3637 35.5567 34.423 35.6929 34.6344C35.8282 34.844 35.7681 35.1243 35.5585 35.2605C35.2348 35.4702 35.019 35.6762 34.9173 35.8726C34.8412 36.0229 34.7837 36.1945 34.7413 36.397C34.6979 36.6111 34.5087 36.7588 34.2991 36.7588ZM36.9347 34.5273C36.7595 34.5273 36.5924 34.4248 36.519 34.2532C36.4199 34.0232 36.5261 33.757 36.756 33.6588L37.1425 33.4934C37.5617 33.3157 37.9907 33.1335 38.4011 32.938C38.6284 32.8301 38.8972 32.9256 39.0051 33.1512C39.113 33.3776 39.0175 33.6473 38.792 33.7552C38.3692 33.9569 37.9279 34.1444 37.4963 34.3275L37.1133 34.4902C37.0549 34.5158 36.9948 34.5273 36.9347 34.5273ZM40.1443 32.8664C40.0134 32.8664 39.8843 32.8098 39.7949 32.701C39.6357 32.5082 39.6631 32.2225 39.8568 32.0642C40.3176 31.6848 40.5759 31.2885 40.6466 30.8516C40.6864 30.604 40.9226 30.4333 41.1658 30.4775C41.4126 30.5173 41.5806 30.7499 41.5399 30.9967C41.4329 31.66 41.0703 32.2375 40.4317 32.7629C40.3477 32.8328 40.246 32.8664 40.1443 32.8664ZM40.7351 29.6347C40.5715 29.6347 40.414 29.5453 40.3327 29.3906C40.108 28.9554 39.7649 28.5176 39.3147 28.0887C39.1334 27.9162 39.1263 27.6296 39.2988 27.4483C39.4721 27.267 39.7587 27.2608 39.9391 27.4324C40.4627 27.9312 40.8651 28.4495 41.1375 28.9731C41.2525 29.1951 41.1658 29.4684 40.9438 29.5842C40.8766 29.6187 40.8058 29.6347 40.7351 29.6347ZM38.2021 27.0963C38.1163 27.0963 38.0296 27.0725 37.9526 27.0212C37.4998 26.7222 36.9868 26.4242 36.427 26.1341C36.2041 26.0191 36.1174 25.7458 36.2324 25.5238C36.3474 25.3009 36.6233 25.2151 36.8427 25.3292C37.4317 25.6344 37.973 25.9492 38.4515 26.2658C38.6602 26.4038 38.7177 26.6842 38.5797 26.8929C38.493 27.0247 38.3489 27.0963 38.2021 27.0963ZM34.9916 25.4124C34.9323 25.4124 34.8713 25.4009 34.8138 25.3761C34.2442 25.1329 33.6817 24.9136 33.1493 24.7199C32.914 24.6341 32.7929 24.3749 32.8787 24.1397C32.9644 23.9053 33.2236 23.785 33.4588 23.869C34.0054 24.068 34.5838 24.2927 35.1693 24.543C35.3993 24.6411 35.5063 24.9074 35.4081 25.1373C35.3347 25.3098 35.1676 25.4124 34.9916 25.4124ZM31.5838 24.1697C31.5396 24.1697 31.4945 24.1636 31.4494 24.1494C30.4199 23.8301 29.7336 23.6638 29.7265 23.6621C29.4833 23.6028 29.3338 23.3587 29.3922 23.1155C29.4515 22.8732 29.6938 22.7281 29.9388 22.7812C29.9388 22.7812 30.6499 22.9528 31.7183 23.2844C31.9571 23.3587 32.0906 23.6125 32.0163 23.8513C31.9562 24.045 31.7775 24.1697 31.5838 24.1697Z" fill="#2D9CCC"/>
<path d="M25.6096 13.9288C25.5468 13.9288 25.4831 13.9155 25.4238 13.889L20.4339 11.6452C20.0093 11.4585 19.7484 11.034 19.7741 10.5653C19.7997 10.0894 20.111 9.68879 20.5656 9.54551L45.6022 1.83237C45.8233 1.76073 46.0612 1.87305 46.1523 2.08708C46.2434 2.30023 46.1585 2.54787 45.956 2.6602L25.8298 13.8713C25.7617 13.9093 25.6856 13.9288 25.6096 13.9288ZM41.7505 3.9665L20.8354 10.4096C20.7018 10.4521 20.6815 10.567 20.6788 10.6148C20.6753 10.6687 20.6877 10.7678 20.8018 10.8173L25.5875 12.97L41.7505 3.9665Z" fill="#2D9CCC"/>
<path d="M38.6347 18.8825C38.5126 18.8825 38.3888 18.8621 38.2685 18.8197L30.1149 16.0019C29.9619 15.9488 29.8487 15.8179 29.8177 15.6587C29.7877 15.4995 29.8443 15.3359 29.9672 15.2307L45.4404 1.9217C45.6005 1.78549 45.8304 1.77576 46.0011 1.89782C46.1709 2.02075 46.2346 2.24363 46.155 2.43732L39.6783 18.1864C39.4935 18.6189 39.0742 18.8825 38.6347 18.8825ZM31.155 15.4031L38.5666 17.9644C38.6754 18.0025 38.7956 17.9459 38.8425 17.8362L44.5984 3.84092L31.155 15.4031Z" fill="#2D9CCC"/>
<path d="M29.8371 23.6771C29.6593 23.6771 29.494 23.5718 29.4214 23.4047L25.1947 13.6582C25.1027 13.4442 25.1868 13.1957 25.3902 13.0825L45.5155 1.87314C45.7154 1.75993 45.9736 1.81742 46.1072 2.00934C46.2398 2.20038 46.2071 2.4604 46.0311 2.61164L30.703 15.7932L30.2891 23.249C30.2776 23.4586 30.1237 23.6329 29.9167 23.67C29.8902 23.6744 29.8637 23.6771 29.8371 23.6771ZM26.1888 13.6741L29.4913 21.2882L29.8097 15.5509C29.8168 15.428 29.8734 15.313 29.9662 15.2325L42.0538 4.83776L26.1888 13.6741Z" fill="#2D9CCC"/>
<path d="M29.8372 23.6769C29.7788 23.6769 29.7204 23.6654 29.6647 23.6425C29.486 23.569 29.3746 23.3913 29.3852 23.1994L29.8097 15.5508C29.8177 15.4084 29.8911 15.2784 30.0096 15.1996C30.1273 15.1209 30.2758 15.1006 30.4094 15.1475L35.2915 16.835C35.4347 16.8845 35.5435 17.0021 35.5816 17.1489C35.6205 17.2949 35.5824 17.4514 35.4816 17.5637L30.175 23.5248C30.0875 23.6239 29.9636 23.6769 29.8372 23.6769ZM30.6809 16.1991L30.3607 21.9541L34.354 17.4691L30.6809 16.1991Z" fill="#2D9CCC"/>
<path d="M30.3308 33.0574C30.3308 40.0582 24.6523 45.7367 17.6515 45.7367C17.1987 45.7367 16.7459 45.7095 16.3021 45.6641C22.6689 44.9849 27.6229 39.5963 27.6229 33.0574C27.6229 26.5186 22.6689 21.1299 16.3021 20.4507C16.7459 20.4054 17.1987 20.3782 17.6515 20.3782C24.6523 20.3782 30.3308 26.0567 30.3308 33.0574Z" fill="#2D9CCC"/>
<path d="M17.6514 46.1894C17.2144 46.1894 16.7448 46.1647 16.2557 46.1143C16.0249 46.0913 15.8498 45.8976 15.8489 45.665C15.848 45.4333 16.0231 45.2387 16.254 45.2139C22.4768 44.5497 27.1696 39.3236 27.1696 33.0574C27.1696 26.7912 22.4768 21.565 16.254 20.9008C16.0231 20.8761 15.848 20.6815 15.8489 20.4498C15.8498 20.2172 16.0249 20.0235 16.2557 20.0005C16.7448 19.9501 17.2144 19.9253 17.6514 19.9253C24.8922 19.9253 30.7834 25.8165 30.7834 33.0574C30.7834 40.2982 24.8922 46.1894 17.6514 46.1894ZM20.5779 21.1847C25.0496 23.2985 28.0753 27.8427 28.0753 33.0574C28.0753 38.272 25.0496 42.8162 20.5779 44.93C25.9111 43.6149 29.8778 38.7903 29.8778 33.0574C29.8778 27.3245 25.9111 22.4999 20.5779 21.1847Z" fill="#2D9CCC"/>
<path d="M14.9432 46.1894C7.70237 46.1894 1.81116 40.2982 1.81116 33.0574C1.81116 25.8165 7.70237 19.9253 14.9432 19.9253C15.3934 19.9253 15.8524 19.9501 16.3477 20.0005C23.034 20.7133 28.0753 26.3268 28.0753 33.0574C28.0753 39.7879 23.034 45.4014 16.3495 46.1143C15.8524 46.1647 15.3934 46.1894 14.9432 46.1894ZM14.9432 20.831C8.20119 20.831 2.71682 26.3153 2.71682 33.0574C2.71682 39.7994 8.20119 45.2838 14.9432 45.2838C15.3625 45.2838 15.7923 45.2608 16.2557 45.2139C22.4768 44.5497 27.1696 39.3236 27.1696 33.0574C27.1696 26.7912 22.4768 21.565 16.254 20.9008C15.7923 20.8539 15.3625 20.831 14.9432 20.831Z" fill="#2D9CCC"/>
<path d="M14.9433 43.0027C9.45889 43.0027 4.9978 38.5416 4.9978 33.0582C4.9978 27.5738 9.45889 23.1118 14.9433 23.1118C20.4276 23.1118 24.8887 27.5729 24.8887 33.0573C24.8887 38.5416 20.4276 43.0027 14.9433 43.0027ZM14.9433 24.0175C9.95859 24.0175 5.90346 28.0735 5.90346 33.0582C5.90346 38.0419 9.95859 42.0971 14.9433 42.0971C19.9279 42.0971 23.9831 38.0419 23.9831 33.0573C23.9831 28.0726 19.9279 24.0175 14.9433 24.0175Z" fill="#2D9CCC"/>
<path d="M8.76459 33.5102H7.96064C7.71035 33.5102 7.50781 33.3076 7.50781 33.0573C7.50781 32.807 7.71035 32.6045 7.96064 32.6045H8.76459C9.01489 32.6045 9.21742 32.807 9.21742 33.0573C9.21742 33.3076 9.01489 33.5102 8.76459 33.5102Z" fill="#2D9CCC"/>
<path d="M21.9258 33.5102H21.1219C20.8716 33.5102 20.6691 33.3076 20.6691 33.0573C20.6691 32.807 20.8716 32.6045 21.1219 32.6045H21.9258C22.1761 32.6045 22.3787 32.807 22.3787 33.0573C22.3787 33.3076 22.1761 33.5102 21.9258 33.5102Z" fill="#2D9CCC"/>
<path d="M12.5438 28.6765C13.0406 28.1329 13.7368 27.8566 14.6323 27.8477L14.6323 26.9588L15.2673 26.9587L15.2673 27.8343C16.154 27.8966 16.8346 28.1584 17.3091 28.6195C17.7837 29.0807 18.0321 29.69 18.0544 30.4475L16.8848 30.4475C16.8536 30.1089 16.7622 29.817 16.6107 29.572C16.33 29.1219 15.8822 28.8858 15.2673 28.8635L15.2674 32.1117C16.3011 32.4013 17.0029 32.6731 17.3727 32.9271C17.9743 33.3459 18.275 33.9652 18.2751 34.7851C18.2751 35.9703 17.8897 36.8124 17.1189 37.3115C16.6911 37.5878 16.074 37.7705 15.2676 37.8596L15.2676 39.1562L14.6327 39.1562L14.6326 37.8596C13.336 37.775 12.456 37.3161 11.9926 36.4829C11.7386 36.0328 11.6116 35.4247 11.6116 34.6583L12.7946 34.6582C12.8302 35.2687 12.926 35.7142 13.082 35.9949C13.3583 36.4984 13.8707 36.7813 14.6192 36.8437L14.6191 33.2012C13.6567 33.0185 12.946 32.7133 12.4871 32.2856C12.0281 31.8579 11.7986 31.2653 11.7986 30.5078C11.7986 29.8305 12.047 29.2201 12.5438 28.6765ZM13.4394 31.4635C13.7313 31.713 14.1245 31.8868 14.6191 31.9848L14.619 28.8435C14.0353 28.8658 13.6198 29.044 13.3725 29.3782C13.1253 29.7124 13.0016 30.0622 13.0016 30.4276C13.0016 30.8687 13.1476 31.214 13.4394 31.4635ZM16.8448 36.0416C16.9963 35.7743 17.072 35.4646 17.072 35.1126C17.072 34.5556 16.867 34.1324 16.4571 33.8427C16.221 33.6734 15.8244 33.513 15.2674 33.3616L15.2675 36.8771C16.0294 36.8414 16.5552 36.5629 16.8448 36.0416Z" fill="#2D9CCC"/>
</svg>
